<svg width="256" height="256" viewBox="0 0 256 256" fill="none" xmlns="http://www.w3.org/2000/svg" role="img" aria-labelledby="title desc">
  <title id="title">Growframe monogram</title>
  <desc id="desc">Minimal geometric G and F monogram for Growframe.</desc>
  <rect width="256" height="256" rx="56" fill="#0A0A0A"/>
  <rect x="38" y="38" width="180" height="180" rx="40" fill="url(#surface)" stroke="url(#edge)" stroke-width="2"/>
  <path d="M158 82H114C91.3563 82 73 100.356 73 123V133C73 155.644 91.3563 174 114 174H155C171.569 174 185 160.569 185 144V128H132" stroke="url(#silver)" stroke-width="17" stroke-linecap="round" stroke-linejoin="round"/>
  <path d="M185 82H132M132 82V174M132 128H174" stroke="url(#violetSilver)" stroke-width="17" stroke-linecap="round" stroke-linejoin="round"/>
  <path d="M91 200H165" stroke="#7C3AED" stroke-width="5" stroke-linecap="round" opacity="0.8"/>
  <defs>
    <linearGradient id="surface" x1="128" y1="38" x2="128" y2="218" gradientUnits="userSpaceOnUse">
      <stop stop-color="#171717"/>
      <stop offset="1" stop-color="#0D0D0D"/>
    </linearGradient>
    <linearGradient id="edge" x1="128" y1="38" x2="128" y2="218" gradientUnits="userSpaceOnUse">
      <stop stop-color="white" stop-opacity="0.18"/>
      <stop offset="1" stop-color="white" stop-opacity="0.06"/>
    </linearGradient>
    <linearGradient id="silver" x1="73" y1="82" x2="185" y2="174" gradientUnits="userSpaceOnUse">
      <stop stop-color="#FFFFFF"/>
      <stop offset="1" stop-color="#9CA3AF"/>
    </linearGradient>
    <linearGradient id="violetSilver" x1="132" y1="82" x2="185" y2="174" gradientUnits="userSpaceOnUse">
      <stop stop-color="#F5F5F5"/>
      <stop offset="0.55" stop-color="#D4D4D8"/>
      <stop offset="1" stop-color="#A78BFA"/>
    </linearGradient>
  </defs>
</svg>
