<svg width="760" height="180" viewBox="0 0 760 180" fill="none" xmlns="http://www.w3.org/2000/svg" role="img" aria-labelledby="title desc">
  <title id="title">Growframe logo</title>
  <desc id="desc">Growframe monogram with wordmark.</desc>
  <rect width="760" height="180" fill="none"/>
  <g transform="translate(28 28)">
    <rect width="124" height="124" rx="28" fill="#0A0A0A"/>
    <rect x="9" y="9" width="106" height="106" rx="24" fill="url(#surface)" stroke="url(#edge)" stroke-width="1.5"/>
    <path d="M80 35H55C42.2975 35 32 45.2975 32 58V66C32 78.7025 42.2975 89 55 89H78C87.9411 89 96 80.9411 96 71V62H65" stroke="url(#silver)" stroke-width="9.5" stroke-linecap="round" stroke-linejoin="round"/>
    <path d="M96 35H65M65 35V89M65 62H90" stroke="url(#violetSilver)" stroke-width="9.5" stroke-linecap="round" stroke-linejoin="round"/>
    <path d="M45 105H81" stroke="#7C3AED" stroke-width="3" stroke-linecap="round" opacity="0.85"/>
  </g>
  <g fill="#F5F5F5">
    <text x="184" y="91" font-family="Inter, Geist, Arial, sans-serif" font-size="56" font-weight="650" letter-spacing="0">Growframe</text>
    <text x="188" y="125" font-family="Inter, Geist, Arial, sans-serif" font-size="16" font-weight="500" letter-spacing="3.8" fill="#71717A">CREATOR GROWTH SYSTEMS</text>
  </g>
  <defs>
    <linearGradient id="surface" x1="62" y1="9" x2="62" y2="115" gradientUnits="userSpaceOnUse">
      <stop stop-color="#171717"/>
      <stop offset="1" stop-color="#0D0D0D"/>
    </linearGradient>
    <linearGradient id="edge" x1="62" y1="9" x2="62" y2="115" gradientUnits="userSpaceOnUse">
      <stop stop-color="white" stop-opacity="0.18"/>
      <stop offset="1" stop-color="white" stop-opacity="0.06"/>
    </linearGradient>
    <linearGradient id="silver" x1="32" y1="35" x2="96" y2="89" gradientUnits="userSpaceOnUse">
      <stop stop-color="#FFFFFF"/>
      <stop offset="1" stop-color="#9CA3AF"/>
    </linearGradient>
    <linearGradient id="violetSilver" x1="65" y1="35" x2="96" y2="89" gradientUnits="userSpaceOnUse">
      <stop stop-color="#F5F5F5"/>
      <stop offset="0.55" stop-color="#D4D4D8"/>
      <stop offset="1" stop-color="#A78BFA"/>
    </linearGradient>
  </defs>
</svg>
